# xmcd CD database file
#
# Track frame offsets:
#	150
#	8432
#	28910
#	46352
#	62955
#	90797
#	104295
#	123005
#	143960
#	163607
#
# Disc length: 2341 seconds
#
# Revision: 0
# Processed by: cddbd v1.5PL3 Copyright (c) Steve Scherf et al.
# Submitted via: CDex 1.50beta10
#
DISCID=7509230a
DTITLE=Dr. Ross - One Man Ban
DYEAR=1998
DGENRE=Blues
TTITLE0=Dr. Ross' Rock
TTITLE1=My Little Woman
TTITLE2=Mama Blues
TTITLE3=32-20
TTITLE4=Chicago Breakdown
TTITLE5=Good Morning Little Schoolgirl
TTITLE6=Bobo Blues
TTITLE7=Fox Chase
TTITLE8=Goin' Down Slow
TTITLE9=The Boogie Woogie
EXTD=YEAR: 1998
EXTT0=
EXTT1=
EXTT2=
EXTT3=
EXTT4=
EXTT5=
EXTT6=
EXTT7=
EXTT8=
EXTT9=
PLAYORDER=
